<?xml version="1.0" encoding="UTF-8" standalone="no"?>
<svg
   xmlns:dc="http://purl.org/dc/elements/1.1/"
   xmlns:cc="http://creativecommons.org/ns#"
   xmlns:rdf="http://www.w3.org/1999/02/22-rdf-syntax-ns#"
   xmlns:svg="http://www.w3.org/2000/svg"
   xmlns="http://www.w3.org/2000/svg"
   height="459.48706"
   width="517.29999"
   xml:space="preserve"
   viewBox="0 0 517.29999 459.48706"
   y="0px"
   x="0px"
   id="Layer_1"
   version="1.1"><metadata
   id="metadata47"><rdf:RDF><cc:Work
       rdf:about=""><dc:format>image/svg+xml</dc:format><dc:type
         rdf:resource="http://purl.org/dc/dcmitype/StillImage" /><dc:title></dc:title></cc:Work></rdf:RDF></metadata><defs
   id="defs45">
	

		
	
			
			
		</defs>

<g
   transform="translate(3.3843813,0.71583718)"
   id="g12">
</g>
<g
   transform="translate(3.3843813,0.71583718)"
   id="g14">
</g>
<g
   transform="translate(3.3843813,0.71583718)"
   id="g16">
</g>
<g
   transform="translate(3.3843813,0.71583718)"
   id="g18">
</g>
<g
   transform="translate(3.3843813,0.71583718)"
   id="g20">
</g>
<g
   transform="translate(3.3843813,0.71583718)"
   id="g22">
</g>
<g
   transform="translate(3.3843813,0.71583718)"
   id="g24">
</g>
<g
   transform="translate(3.3843813,0.71583718)"
   id="g26">
</g>
<g
   transform="translate(3.3843813,0.71583718)"
   id="g28">
</g>
<g
   transform="translate(3.3843813,0.71583718)"
   id="g30">
</g>
<g
   transform="translate(3.3843813,0.71583718)"
   id="g32">
</g>
<g
   transform="translate(3.3843813,0.71583718)"
   id="g34">
</g>
<g
   transform="translate(3.3843813,0.71583718)"
   id="g36">
</g>
<g
   transform="translate(3.3843813,0.71583718)"
   id="g38">
</g>
<g
   transform="translate(3.3843813,0.71583718)"
   id="g40">
</g>
<g
   transform="translate(3.3843813,0.71583718)"
   style="display:inline"
   id="layer5" /><g
   transform="translate(3.3843813,0.71583718)"
   style="display:inline"
   id="layer6" /><g
   transform="translate(3.3843813,0.71583718)"
   id="layer7" /><g
   transform="translate(3.3843813,0.71583718)"
   id="layer8"><g
     id="g1485"><path
       style="fill:#f5f5f7;fill-opacity:1;stroke:#000000;stroke-width:2.79495549;stroke-opacity:1"
       d="m 169.1793,1.3974777 c -91.733232,0 -166.3652312,74.6320083 -166.3652312,166.3652423 0,89.15068 82.5077472,164.39968 154.3828112,219.99414 31.36219,24.25462 74.23854,52.12801 76.04688,53.30468 l 25.40624,16.49024 25.4043,-16.49024 c 1.81113,-1.17667 44.69028,-29.05006 76.04688,-53.30468 71.87508,-55.59446 154.38086,-130.84067 154.38086,-219.99414 0,-91.730434 -74.632,-166.3652423 -166.36524,-166.3652423 -31.97709,0 -62.98374,9.2490253 -89.46875,26.1445313 C 232.16305,10.643717 201.15637,1.3974777 169.1793,1.3974777 Z m 21.58203,67.8984373 c 24.26347,0 47.7905,7.013897 67.88672,19.835938 20.09623,-12.819927 43.62323,-19.835938 67.88672,-19.835938 69.6051,0 126.23438,56.629445 126.23438,126.232425 0,67.64763 -62.60149,124.74197 -117.13868,166.92578 -23.79268,18.40386 -56.33082,39.55443 -57.70507,40.44727 L 258.65,415.41506 239.37266,402.90139 c -1.37212,-0.89284 -33.9062,-22.04341 -57.70312,-40.44727 C 127.13237,320.27031 64.526959,263.17385 64.526959,195.52834 c 0,-69.60511 56.629261,-126.232425 126.234371,-126.232425 z"
       id="path4"
       transform="translate(-3.3843813,-0.71583713)" /><g
       style="display:inline;fill:#000000;fill-opacity:1;stroke:#000000;stroke-width:5.30000019;stroke-miterlimit:4;stroke-dasharray:none;stroke-opacity:1"
       id="g6110"><path
         d="m 389.59106,252.29252 c -60.19199,0 -109.99559,47.56275 -131.98455,72.51932 -21.98808,-24.95568 -71.79256,-72.51932 -131.98278,-72.51932 -52.945766,0 -96.020588,43.07482 -96.020588,96.0197 0,52.94487 43.074822,96.01881 96.019698,96.01881 60.192,0 109.9947,-47.56275 131.98367,-72.51754 21.98807,24.95568 71.79166,72.51754 131.98455,72.51754 52.94577,0 96.01881,-43.07394 96.01881,-96.01881 0,-52.94488 -43.07393,-96.0197 -96.01881,-96.0197 z m -180.1663,125.26915 c -35.97732,30.60678 -65.42895,37.03095 -83.80192,37.03095 -36.547337,0 -66.280401,-29.73307 -66.280401,-66.27951 0,-36.54645 29.733955,-66.2804 66.280401,-66.2804 51.12886,0 96.12479,46.52783 112.93737,66.30177 -6.1935,7.30235 -16.24257,18.25809 -29.13545,29.22719 z m 180.1663,37.03006 c -51.11461,0 -96.09629,-46.49577 -112.92044,-66.27951 16.82326,-19.78375 61.80672,-66.2804 112.92044,-66.2804 36.54734,0 66.27951,29.73395 66.27951,66.2804 0,36.54733 -29.73306,66.27951 -66.27951,66.27951 z m 13.86556,-174.08951 c -67.583,0 -123.502,53.403 -148.191,81.424 -24.688,-28.02 -80.608,-81.424 -148.189,-81.424 -59.447002,0 -107.8110012,48.364 -107.8110012,107.81 0,59.446 48.3639992,107.809 107.8100012,107.809 67.583,0 123.501,-53.403 148.19,-81.422 24.688,28.02 80.607,81.422 148.191,81.422 59.447,0 107.809,-48.363 107.809,-107.809 0,-59.446 -48.363,-107.81 -107.809,-107.81 z m -202.289,140.651 c -40.395,34.365 -73.463,41.578 -94.092,41.578 -41.035002,0 -74.419002,-33.384 -74.419002,-74.418 0,-41.034 33.385,-74.419 74.419002,-74.419 57.407,0 107.928,52.241 126.805,74.443 -6.954,8.199 -18.237,20.5 -32.713,32.816 z m 202.289,41.577 c -57.391,0 -107.896,-52.205 -126.786,-74.418 18.889,-22.213 69.396,-74.419 126.786,-74.419 41.035,0 74.418,33.385 74.418,74.419 0,41.035 -33.384,74.418 -74.418,74.418 z m 0,-182.228 c -67.583,0 -123.502,53.403 -148.191,81.424 -24.688,-28.02 -80.608,-81.424 -148.189,-81.424 -59.447002,0 -107.8110012,48.364 -107.8110012,107.81 0,59.446 48.3639992,107.809 107.8100012,107.809 67.583,0 123.501,-53.403 148.19,-81.422 24.688,28.02 80.607,81.422 148.191,81.422 59.447,0 107.809,-48.363 107.809,-107.809 0,-59.446 -48.363,-107.81 -107.809,-107.81 z m -202.289,140.651 c -40.395,34.365 -73.463,41.578 -94.092,41.578 -41.035002,0 -74.419002,-33.384 -74.419002,-74.418 0,-41.034 33.385,-74.419 74.419002,-74.419 57.407,0 107.928,52.241 126.805,74.443 -6.954,8.199 -18.237,20.5 -32.713,32.816 z m 202.289,41.577 c -57.391,0 -107.896,-52.205 -126.786,-74.418 18.889,-22.213 69.396,-74.419 126.786,-74.419 41.035,0 74.418,33.385 74.418,74.419 0,41.035 -33.384,74.418 -74.418,74.418 z"
         style="fill:#000000;fill-opacity:1;stroke:#000000;stroke-width:5.30000019;stroke-miterlimit:4;stroke-dasharray:none;stroke-opacity:1"
         id="path6108" /></g><g
       id="g5497"
       style="display:inline;fill:#000000;fill-opacity:1;stroke:none;stroke-width:3.70000005;stroke-miterlimit:4;stroke-dasharray:none;stroke-opacity:1"><path
         id="path3223"
         style="fill:#000000;fill-opacity:1;stroke:none;stroke-width:3.70000005;stroke-miterlimit:4;stroke-dasharray:none;stroke-opacity:1"
         d="m 389.59106,252.29252 c -60.19199,0 -109.99559,47.56275 -131.98455,72.51932 -21.98808,-24.95568 -71.79256,-72.51932 -131.98278,-72.51932 -52.945766,0 -96.020588,43.07482 -96.020588,96.0197 0,52.94487 43.074822,96.01881 96.019698,96.01881 60.192,0 109.9947,-47.56275 131.98367,-72.51754 21.98807,24.95568 71.79166,72.51754 131.98455,72.51754 52.94577,0 96.01881,-43.07394 96.01881,-96.01881 0,-52.94488 -43.07393,-96.0197 -96.01881,-96.0197 z m -180.1663,125.26915 c -35.97732,30.60678 -65.42895,37.03095 -83.80192,37.03095 -36.547337,0 -66.280401,-29.73307 -66.280401,-66.27951 0,-36.54645 29.733955,-66.2804 66.280401,-66.2804 51.12886,0 96.12479,46.52783 112.93737,66.30177 -6.1935,7.30235 -16.24257,18.25809 -29.13545,29.22719 z m 180.1663,37.03006 c -51.11461,0 -96.09629,-46.49577 -112.92044,-66.27951 16.82326,-19.78375 61.80672,-66.2804 112.92044,-66.2804 36.54734,0 66.27951,29.73395 66.27951,66.2804 0,36.54733 -29.73306,66.27951 -66.27951,66.27951 z m 13.86556,-174.08951 c -67.583,0 -123.502,53.403 -148.191,81.424 -24.688,-28.02 -80.608,-81.424 -148.189,-81.424 -59.447002,0 -107.8110012,48.364 -107.8110012,107.81 0,59.446 48.3639992,107.809 107.8100012,107.809 67.583,0 123.501,-53.403 148.19,-81.422 24.688,28.02 80.607,81.422 148.191,81.422 59.447,0 107.809,-48.363 107.809,-107.809 0,-59.446 -48.363,-107.81 -107.809,-107.81 z m -202.289,140.651 c -40.395,34.365 -73.463,41.578 -94.092,41.578 -41.035002,0 -74.419002,-33.384 -74.419002,-74.418 0,-41.034 33.385,-74.419 74.419002,-74.419 57.407,0 107.928,52.241 126.805,74.443 -6.954,8.199 -18.237,20.5 -32.713,32.816 z m 202.289,41.577 c -57.391,0 -107.896,-52.205 -126.786,-74.418 18.889,-22.213 69.396,-74.419 126.786,-74.419 41.035,0 74.418,33.385 74.418,74.419 0,41.035 -33.384,74.418 -74.418,74.418 z m 0,-182.228 c -67.583,0 -123.502,53.403 -148.191,81.424 -24.688,-28.02 -80.608,-81.424 -148.189,-81.424 -59.447002,0 -107.8110012,48.364 -107.8110012,107.81 0,59.446 48.3639992,107.809 107.8100012,107.809 67.583,0 123.501,-53.403 148.19,-81.422 24.688,28.02 80.607,81.422 148.191,81.422 59.447,0 107.809,-48.363 107.809,-107.809 0,-59.446 -48.363,-107.81 -107.809,-107.81 z m -202.289,140.651 c -40.395,34.365 -73.463,41.578 -94.092,41.578 -41.035002,0 -74.419002,-33.384 -74.419002,-74.418 0,-41.034 33.385,-74.419 74.419002,-74.419 57.407,0 107.928,52.241 126.805,74.443 -6.954,8.199 -18.237,20.5 -32.713,32.816 z m 202.289,41.577 c -57.391,0 -107.896,-52.205 -126.786,-74.418 18.889,-22.213 69.396,-74.419 126.786,-74.419 41.035,0 74.418,33.385 74.418,74.419 0,41.035 -33.384,74.418 -74.418,74.418 z" /></g><path
       style="fill:#f5f5f7;fill-opacity:1;stroke:none;stroke-width:1px;stroke-linecap:butt;stroke-linejoin:miter;stroke-opacity:1"
       d="m 272.72591,405.00872 c 0,0 20.69783,-13.27991 44.42664,-30.22906 23.72881,-16.94916 28.0678,19.25424 28.0678,19.25424 0,0 -22.98305,17.01695 -48.33898,33.83051 -25.35594,16.81356 -24.15546,-22.85569 -24.15546,-22.85569 z"
       id="path15570" /><path
       style="fill:none;stroke:#000000;stroke-width:2.70000005;stroke-linecap:butt;stroke-linejoin:miter;stroke-miterlimit:4;stroke-dasharray:none;stroke-opacity:1"
       d="m 275.59323,401.52543 c 0,0 16.61017,-10.00001 37.01695,-25.32204"
       id="path15574" /><path
       id="path15576"
       d="M 305.10561,423.99319 C 319.93739,413.6383 321.66447,412.42754 341.7545,398.3085"
       style="fill:none;stroke:#000000;stroke-width:2.70000005;stroke-linecap:butt;stroke-linejoin:miter;stroke-miterlimit:4;stroke-dasharray:none;stroke-opacity:1" /><path
       style="fill:none;stroke:#000000;stroke-width:3;stroke-linecap:butt;stroke-linejoin:miter;stroke-miterlimit:4;stroke-dasharray:none;stroke-opacity:1"
       d="m 33.55761,267.7006 c 0,0 15.532379,23.20269 37.00925,46.02186"
       id="path6724" /><path
       style="fill:none;stroke:#000000;stroke-width:3;stroke-linecap:butt;stroke-linejoin:miter;stroke-miterlimit:4;stroke-dasharray:none;stroke-opacity:1"
       d="m 72.40678,244.88136 c 0,0 11.661017,25.76271 27.79661,43.9322"
       id="path6727" /><path
       style="fill:#f5f5f7;fill-opacity:1;stroke:none;stroke-width:1px;stroke-linecap:butt;stroke-linejoin:miter;stroke-opacity:1"
       d="m 32.745178,264.06181 c 0,0 21.138756,32.40245 42.999142,52.72878 21.860386,20.32632 24.37651,-25.7832 24.37651,-25.7832 0,0 -18.048504,-20.23867 -32.238579,-52.83749 -14.190075,-32.59882 -35.137073,25.89191 -35.137073,25.89191 z"
       id="path6729" /></g></g></svg>